# xmcd CD database file
#
# Track frame offsets:
#	150
#	5308
#	24379
#	49520
#	72949
#	95519
#	117873
#	139968
#	160900
#	176005
#	198575
#	215439
#
# Disc length: 2986 seconds
#
# Revision: 7
# Processed by: cddbd v1.4PL0 Copyright (c) Steve Scherf et al.
# Submitted via: CDex 1.40Release
#
DISCID=a20ba80c
DTITLE=MALICE MIZER - merveilles
DYEAR=1998
DGENRE=Blues
TTITLE0=~de merveilles
TTITLE1=Syunikiss ~NidomenoAitou~
TTITLE2=veru eru ~KuhakunoTokinoNakade~
TTITLE3=ILLUMINATI
TTITLE4=Brise
TTITLE5=Yuge ~SugisarishiKazetoTomoni~
TTITLE6=au revoir
TTITLE7=Ju te veux
TTITLE8=S-CONSCIOUS
TTITLE9=Le ciel
TTITLE10=GekkanoYasoukyoku
TTITLE11=Bois de merveilles
EXTD=YEAR: 1998 ID3G: 0
EXTT0=
EXTT1=
EXTT2=
EXTT3=
EXTT4=
EXTT5=
EXTT6=
EXTT7=
EXTT8=
EXTT9=
EXTT10=
EXTT11=
PLAYORDER=
